<svg width="180" height="180" viewBox="0 0 180 180" fill="none" xmlns="http://www.w3.org/2000/svg">
<rect width="180" height="180" fill="white"/>
<path fill-rule="evenodd" clip-rule="evenodd" d="M74.0371 115.969L77.2942 117.824V110.54L74.0371 108.686V115.969Z" fill="#00E676"/>
<path fill-rule="evenodd" clip-rule="evenodd" d="M74.0371 145.919L74.4777 146.17C75.4146 146.46 76.3555 146.74 77.2942 147.004V140.489L74.0371 138.635V145.919Z" fill="#00E676"/>
<path fill-rule="evenodd" clip-rule="evenodd" d="M64.8887 125.738L68.1441 127.593V120.31L64.8887 118.455V125.738Z" fill="#00E676"/>
<path fill-rule="evenodd" clip-rule="evenodd" d="M64.8887 140.717L68.1441 142.572V135.287L64.8887 133.436V140.717Z" fill="#00E676"/>
<path fill-rule="evenodd" clip-rule="evenodd" d="M83.1777 148.446C84.2996 148.669 85.3899 148.853 86.4335 148.987V145.696L83.1777 143.842V148.446Z" fill="#00E676"/>
<path fill-rule="evenodd" clip-rule="evenodd" d="M74.0371 86.0118L77.2942 87.8662V80.583L74.0371 78.7285V86.0118Z" fill="#00E676"/>
<path fill-rule="evenodd" clip-rule="evenodd" d="M74.0371 100.987L77.2942 102.843V95.56L74.0371 93.7051V100.987Z" fill="#00E676"/>
<path fill-rule="evenodd" clip-rule="evenodd" d="M83.1777 121.172L86.4335 123.027V115.742L83.1777 113.889V121.172Z" fill="#00E676"/>
<path fill-rule="evenodd" clip-rule="evenodd" d="M64.8887 80.8125L68.1441 82.6656V75.3837L64.8887 73.5293V80.8125Z" fill="#00E676"/>
<mask id="mask0_660_51836" style="mask-type:alpha" maskUnits="userSpaceOnUse" x="28" y="27" width="124" height="126">
<path fill-rule="evenodd" clip-rule="evenodd" d="M28 153H151.897V27H28V153Z" fill="white"/>
</mask>
<g mask="url(#mask0_660_51836)">
<path fill-rule="evenodd" clip-rule="evenodd" d="M118.413 80.8115L115.16 82.6645V75.3822L118.413 73.5278V80.8115ZM118.413 95.7866L115.16 97.641V90.36L118.413 88.5056V95.7866ZM118.413 110.766L115.16 112.62V105.336L118.413 103.483V110.766ZM109.273 86.0143L106.018 87.8688V80.5878L109.273 78.7325V86.0143ZM109.273 100.99L106.018 102.845V95.5625L109.273 93.7076V100.99ZM109.273 115.968L106.018 117.823V110.542L109.273 108.685V115.968ZM109.273 130.945L106.018 132.798V125.517L109.273 123.663V130.945ZM100.13 91.2182L96.8725 93.0726V85.7916L100.13 83.9372V91.2182ZM100.13 121.172L96.8725 123.026V115.744L100.13 113.889V121.172ZM100.13 136.147L96.8725 138.002V130.722L100.13 128.866V136.147ZM89.9484 27C55.7351 27 28 54.3631 28 88.1168C28 101.396 32.2947 113.684 39.5855 123.708L33.2056 153L59.6726 141.283V63.113L64.1361 60.5674L91.6534 44.8954L123.634 63.113L91.6534 81.328V149.21C125.078 148.319 151.897 121.308 151.897 88.1168C151.897 54.3631 124.162 27 89.9484 27Z" fill="#00E676"/>
</g>
<path fill-rule="evenodd" clip-rule="evenodd" d="M83.1777 106.197L86.4335 108.05V100.767L83.1777 98.9121V106.197Z" fill="#00E676"/>
<path fill-rule="evenodd" clip-rule="evenodd" d="M64.8887 95.7857L68.1441 97.6401V90.3551L64.8887 88.502V95.7857Z" fill="#00E676"/>
<path fill-rule="evenodd" clip-rule="evenodd" d="M83.1777 136.148L86.4335 138.002V130.717L83.1777 128.865V136.148Z" fill="#00E676"/>
</svg>
