<svg width="66" height="32" viewBox="0 0 66 32" fill="none" xmlns="http://www.w3.org/2000/svg">
<path d="M0.125 16C0.125 7.16344 7.28844 0 16.125 0H49.125C57.9616 0 65.125 7.16344 65.125 16C65.125 24.8366 57.9616 32 49.125 32H16.125C7.28844 32 0.125 24.8366 0.125 16Z" fill="#CEE2FD"/>
<g clip-path="url(#clip0_801_2638)">
<path d="M33.125 6C27.605 6 23.125 10.48 23.125 16C23.125 21.52 27.605 26 33.125 26C38.645 26 43.125 21.52 43.125 16C43.125 10.48 38.645 6 33.125 6ZM33.125 9C34.785 9 36.125 10.34 36.125 12C36.125 13.66 34.785 15 33.125 15C31.465 15 30.125 13.66 30.125 12C30.125 10.34 31.465 9 33.125 9ZM33.125 23.2C30.625 23.2 28.415 21.92 27.125 19.98C27.155 17.99 31.125 16.9 33.125 16.9C35.115 16.9 39.095 17.99 39.125 19.98C37.835 21.92 35.625 23.2 33.125 23.2Z" fill="black"/>
</g>
<defs>
<clipPath id="clip0_801_2638">
<rect width="24" height="24" fill="white" transform="translate(21.125 4)"/>
</clipPath>
</defs>
</svg>
