<svg width="66" height="32" viewBox="0 0 66 32" fill="none" xmlns="http://www.w3.org/2000/svg">
<path d="M0.625 16C0.625 7.16344 7.78844 0 16.625 0H49.625C58.4616 0 65.625 7.16344 65.625 16C65.625 24.8366 58.4616 32 49.625 32H16.625C7.78844 32 0.625 24.8366 0.625 16Z" fill="#CEE2FD"/>
<g clip-path="url(#clip0_703_1665)">
<path d="M34.625 16.9999V24.9999H42.625V16.9999H34.625ZM24.625 24.9999H32.625V16.9999H24.625V24.9999ZM24.625 6.99994V14.9999H32.625V6.99994H24.625ZM38.285 5.68994L32.625 11.3399L38.285 16.9999L43.945 11.3399L38.285 5.68994Z" fill="black"/>
</g>
<defs>
<clipPath id="clip0_703_1665">
<rect width="24" height="24" fill="white" transform="translate(21.625 4)"/>
</clipPath>
</defs>
</svg>
