<svg width="25" height="24" viewBox="0 0 25 24" fill="none" xmlns="http://www.w3.org/2000/svg">
<g clip-path="url(#clip0_530_1501)">
<path d="M16.785 4.51994L19.615 7.34994L16.785 10.1799L13.955 7.34994L16.785 4.51994ZM9.125 4.99994V8.99994H5.125V4.99994H9.125ZM19.125 14.9999V18.9999H15.125V14.9999H19.125ZM9.125 14.9999V18.9999H5.125V14.9999H9.125ZM16.785 1.68994L11.125 7.33994L16.785 12.9999L22.445 7.33994L16.785 1.68994ZM11.125 2.99994H3.125V10.9999H11.125V2.99994ZM21.125 12.9999H13.125V20.9999H21.125V12.9999ZM11.125 12.9999H3.125V20.9999H11.125V12.9999Z" fill="#7B808E"/>
</g>
<defs>
<clipPath id="clip0_530_1501">
<rect width="24" height="24" fill="white" transform="translate(0.125)"/>
</clipPath>
</defs>
</svg>
