<svg width="17" height="16" viewBox="0 0 17 16" fill="none" xmlns="http://www.w3.org/2000/svg">
<g clip-path="url(#clip0_530_2511)">
<path d="M2.5 14H3.83333V12.6667H2.5V14ZM5.16667 14H6.5V12.6667H5.16667V14ZM3.83333 4.66667H2.5V6H3.83333V4.66667ZM2.5 11.3333H3.83333V10H2.5V11.3333ZM6.5 2H5.16667V3.33333H6.5V2ZM3.83333 2H2.5V3.33333H3.83333V2ZM11.8333 2H10.5V3.33333H11.8333V2ZM13.1667 6H14.5V4.66667H13.1667V6ZM13.1667 2V3.33333H14.5V2H13.1667ZM10.5 14H11.8333V12.6667H10.5V14ZM9.16667 2H7.83333V7.33333H2.5V8.66667H7.83333V14H9.16667V8.66667H14.5V7.33333H9.16667V2ZM13.1667 14H14.5V12.6667H13.1667V14ZM13.1667 11.3333H14.5V10H13.1667V11.3333Z" fill="#7B808E"/>
</g>
<defs>
<clipPath id="clip0_530_2511">
<rect width="16" height="16" fill="white" transform="translate(0.5)"/>
</clipPath>
</defs>
</svg>
