<svg width="25" height="24" viewBox="0 0 25 24" fill="none" xmlns="http://www.w3.org/2000/svg">
<g clip-path="url(#clip0_530_1510)">
<path d="M20.875 4H4.875C3.775 4 2.875 4.9 2.875 6V18C2.875 19.1 3.775 20 4.875 20H20.875C21.975 20 22.875 19.1 22.875 18V6C22.875 4.9 21.975 4 20.875 4ZM20.875 18H4.875V6H20.875V18ZM4.875 0H20.875V2H4.875V0ZM4.875 22H20.875V24H4.875V22ZM12.875 12C14.255 12 15.375 10.88 15.375 9.5C15.375 8.12 14.255 7 12.875 7C11.495 7 10.375 8.12 10.375 9.5C10.375 10.88 11.495 12 12.875 12ZM12.875 8.5C13.425 8.5 13.875 8.95 13.875 9.5C13.875 10.05 13.425 10.5 12.875 10.5C12.325 10.5 11.875 10.05 11.875 9.5C11.875 8.95 12.325 8.5 12.875 8.5ZM17.875 15.99C17.875 13.9 14.565 13 12.875 13C11.185 13 7.875 13.9 7.875 15.99V17H17.875V15.99ZM9.685 15.5C10.295 14.98 11.715 14.5 12.875 14.5C14.045 14.5 15.465 14.98 16.075 15.5H9.685Z" fill="#7B808E"/>
</g>
<defs>
<clipPath id="clip0_530_1510">
<rect width="24" height="24" fill="white" transform="translate(0.875)"/>
</clipPath>
</defs>
</svg>
