<svg width="66" height="32" viewBox="0 0 66 32" fill="none" xmlns="http://www.w3.org/2000/svg">
<path d="M0.375 16C0.375 7.16344 7.53844 0 16.375 0H49.375C58.2116 0 65.375 7.16344 65.375 16C65.375 24.8366 58.2116 32 49.375 32H16.375C7.53844 32 0.375 24.8366 0.375 16Z" fill="#CEE2FD"/>
<g clip-path="url(#clip0_801_2630)">
<path d="M41.375 4H25.375V6H41.375V4ZM25.375 28H41.375V26H25.375V28ZM41.375 8H25.375C24.275 8 23.375 8.9 23.375 10V22C23.375 23.1 24.275 24 25.375 24H41.375C42.475 24 43.375 23.1 43.375 22V10C43.375 8.9 42.475 8 41.375 8ZM33.375 10.75C34.615 10.75 35.625 11.76 35.625 13C35.625 14.24 34.615 15.25 33.375 15.25C32.135 15.25 31.125 14.24 31.125 13C31.125 11.76 32.135 10.75 33.375 10.75ZM38.375 21H28.375V19.5C28.375 17.83 31.705 17 33.375 17C35.045 17 38.375 17.83 38.375 19.5V21Z" fill="#323232"/>
</g>
<defs>
<clipPath id="clip0_801_2630">
<rect width="24" height="24" fill="white" transform="translate(21.375 4)"/>
</clipPath>
</defs>
</svg>
