<svg width="10" height="17" viewBox="0 0 10 17" fill="none" xmlns="http://www.w3.org/2000/svg">
<path d="M9.66683 5.83333V5.212C9.66595 4.31619 9.3097 3.45733 8.67627 2.8239C8.04283 2.19046 7.18397 1.83422 6.28816 1.83333H5.66683V0.5H4.3335V1.83333H3.71216C2.91037 1.83419 2.13502 2.12016 1.52469 2.64012C0.914362 3.16008 0.508836 3.88015 0.380598 4.67162C0.25236 5.46308 0.40977 6.27436 0.824691 6.96044C1.23961 7.64652 1.885 8.16268 2.6455 8.41667L4.3335 8.98V13.8333H3.71216C3.16987 13.8328 2.64994 13.6171 2.26648 13.2337C1.88302 12.8502 1.66736 12.3303 1.66683 11.788V11.1667H0.333496V11.788C0.334379 12.6838 0.690627 13.5427 1.32406 14.1761C1.95749 14.8095 2.81636 15.1658 3.71216 15.1667H4.3335V16.5H5.66683V15.1667H6.28816C7.08995 15.1658 7.8653 14.8798 8.47563 14.3599C9.08596 13.8399 9.49149 13.1199 9.61973 12.3284C9.74796 11.5369 9.59056 10.7256 9.17564 10.0396C8.76071 9.35348 8.11533 8.83732 7.35483 8.58333L5.66683 8.02V3.16667H6.28816C6.83046 3.1672 7.35039 3.38286 7.73385 3.76632C8.11731 4.14978 8.33297 4.66971 8.3335 5.212V5.83333H9.66683ZM6.9335 9.84733C7.39434 10.0007 7.78556 10.3131 8.03714 10.7285C8.28872 11.144 8.38425 11.6354 8.30663 12.1149C8.229 12.5943 7.9833 13.0305 7.61348 13.3454C7.24365 13.6602 6.77386 13.8332 6.28816 13.8333H5.66683V9.42467L6.9335 9.84733ZM4.3335 7.57533L3.06683 7.15267C2.60599 6.99929 2.21477 6.68691 1.96319 6.27146C1.7116 5.856 1.61607 5.36457 1.6937 4.88512C1.77132 4.40566 2.01703 3.96948 2.38685 3.65463C2.75667 3.33978 3.22647 3.1668 3.71216 3.16667H4.3335V7.57533Z" fill="#D0D0D0"/>
</svg>
