<svg width="66" height="32" viewBox="0 0 66 32" fill="none" xmlns="http://www.w3.org/2000/svg">
<path d="M0.875 16C0.875 7.16344 8.03844 0 16.875 0H49.875C58.7116 0 65.875 7.16344 65.875 16C65.875 24.8366 58.7116 32 49.875 32H16.875C8.03844 32 0.875 24.8366 0.875 16Z" fill="#CEE2FD"/>
<g clip-path="url(#clip0_703_1652)">
<path d="M39.875 16C39.875 16.55 40.325 17 40.875 17H42.875C43.425 17 43.875 16.55 43.875 16C43.875 15.45 43.425 15 42.875 15H40.875C40.325 15 39.875 15.45 39.875 16Z" fill="#06164F"/>
<path d="M38.465 20.8199C38.135 21.2599 38.225 21.8699 38.665 22.1899C39.195 22.5799 39.755 22.9999 40.285 23.3999C40.725 23.7299 41.345 23.6399 41.665 23.1999C41.665 23.1899 41.675 23.1899 41.675 23.1799C42.005 22.7399 41.915 22.1199 41.475 21.7999C40.945 21.3999 40.385 20.9799 39.865 20.5899C39.425 20.2599 38.805 20.3599 38.475 20.7999C38.475 20.8099 38.465 20.8199 38.465 20.8199Z" fill="#06164F"/>
<path d="M41.6848 8.81004C41.6848 8.80004 41.6748 8.80004 41.6748 8.79004C41.3448 8.35004 40.7248 8.26005 40.2948 8.59005C39.7648 8.99005 39.1948 9.41004 38.6748 9.81004C38.2348 10.14 38.1548 10.76 38.4848 11.19C38.4848 11.2 38.4948 11.2 38.4948 11.21C38.8248 11.65 39.4348 11.74 39.8748 11.41C40.4048 11.02 40.9648 10.59 41.4948 10.19C41.9248 9.87004 42.0048 9.25004 41.6848 8.81004Z" fill="#06164F"/>
<path d="M29.875 13H25.875C24.775 13 23.875 13.9 23.875 15V17C23.875 18.1 24.775 19 25.875 19H26.875V22C26.875 22.55 27.325 23 27.875 23C28.425 23 28.875 22.55 28.875 22V19H29.875L34.875 22V10L29.875 13Z" fill="#06164F"/>
<path d="M37.375 15.9999C37.375 14.6699 36.795 13.4699 35.875 12.6499V19.3399C36.795 18.5299 37.375 17.3299 37.375 15.9999Z" fill="#06164F"/>
</g>
<defs>
<clipPath id="clip0_703_1652">
<rect width="24" height="24" fill="white" transform="translate(21.875 4)"/>
</clipPath>
</defs>
</svg>
