<svg width="25" height="24" viewBox="0 0 25 24" fill="none" xmlns="http://www.w3.org/2000/svg">
<g clip-path="url(#clip0_801_2838)">
<path d="M18.375 11C18.375 11.67 18.375 12.33 18.375 13C19.575 13 21.135 13 22.375 13C22.375 12.33 22.375 11.67 22.375 11C21.135 11 19.575 11 18.375 11Z" fill="#7B808E"/>
<path d="M16.375 17.61C17.335 18.32 18.585 19.26 19.575 20C19.975 19.47 20.375 18.93 20.775 18.4C19.785 17.66 18.535 16.72 17.575 16C17.175 16.54 16.775 17.08 16.375 17.61Z" fill="#7B808E"/>
<path d="M20.775 5.6C20.375 5.07 19.975 4.53 19.575 4C18.585 4.74 17.335 5.68 16.375 6.4C16.775 6.93 17.175 7.47 17.575 8C18.535 7.28 19.785 6.35 20.775 5.6Z" fill="#7B808E"/>
<path d="M4.375 9C3.275 9 2.375 9.9 2.375 11V13C2.375 14.1 3.275 15 4.375 15H5.375V19H7.375V15H8.375L13.375 18V6L8.375 9H4.375ZM9.405 10.71L11.375 9.53V14.47L9.405 13.29L8.925 13H8.375H4.375V11H8.375H8.925L9.405 10.71Z" fill="#7B808E"/>
<path d="M15.875 11.9999C15.875 10.6699 15.295 9.4699 14.375 8.6499V15.3399C15.295 14.5299 15.875 13.3299 15.875 11.9999Z" fill="#7B808E"/>
</g>
<defs>
<clipPath id="clip0_801_2838">
<rect width="24" height="24" fill="white" transform="translate(0.375)"/>
</clipPath>
</defs>
</svg>
