<svg width="25" height="24" viewBox="0 0 25 24" fill="none" xmlns="http://www.w3.org/2000/svg">
<g clip-path="url(#clip0_530_1517)">
<path d="M12.625 2C7.105 2 2.625 6.48 2.625 12C2.625 17.52 7.105 22 12.625 22C18.145 22 22.625 17.52 22.625 12C22.625 6.48 18.145 2 12.625 2ZM7.695 18.28C8.125 17.38 10.745 16.5 12.625 16.5C14.505 16.5 17.135 17.38 17.555 18.28C16.195 19.36 14.485 20 12.625 20C10.765 20 9.055 19.36 7.695 18.28ZM18.985 16.83C17.555 15.09 14.085 14.5 12.625 14.5C11.165 14.5 7.695 15.09 6.265 16.83C5.245 15.49 4.625 13.82 4.625 12C4.625 7.59 8.215 4 12.625 4C17.035 4 20.625 7.59 20.625 12C20.625 13.82 20.005 15.49 18.985 16.83ZM12.625 6C10.685 6 9.125 7.56 9.125 9.5C9.125 11.44 10.685 13 12.625 13C14.565 13 16.125 11.44 16.125 9.5C16.125 7.56 14.565 6 12.625 6ZM12.625 11C11.795 11 11.125 10.33 11.125 9.5C11.125 8.67 11.795 8 12.625 8C13.455 8 14.125 8.67 14.125 9.5C14.125 10.33 13.455 11 12.625 11Z" fill="#7B808E"/>
</g>
<defs>
<clipPath id="clip0_530_1517">
<rect width="24" height="24" fill="white" transform="translate(0.625)"/>
</clipPath>
</defs>
</svg>
