<svg width="42" height="26" viewBox="0 0 42 26" fill="none" xmlns="http://www.w3.org/2000/svg">
<rect x="0.5" y="0.5" width="41" height="25" rx="7.5" fill="#F77F39"/>
<path d="M14.6572 9.586C14.6105 9.66533 14.5615 9.72367 14.5102 9.761C14.4589 9.79833 14.3935 9.817 14.3142 9.817C14.2302 9.817 14.1345 9.77967 14.0272 9.705C13.9199 9.62567 13.7845 9.53933 13.6212 9.446C13.4625 9.348 13.2712 9.26167 13.0472 9.187C12.8232 9.10767 12.5549 9.068 12.2422 9.068C11.9482 9.068 11.6892 9.10767 11.4652 9.187C11.2459 9.26167 11.0615 9.36667 10.9122 9.502C10.7629 9.63267 10.6485 9.789 10.5692 9.971C10.4945 10.1483 10.4572 10.342 10.4572 10.552C10.4572 10.8227 10.5249 11.0467 10.6602 11.224C10.8002 11.4013 10.9822 11.553 11.2062 11.679C11.4302 11.805 11.6845 11.9147 11.9692 12.008C12.2539 12.1013 12.5455 12.1993 12.8442 12.302C13.1429 12.4 13.4345 12.5143 13.7192 12.645C14.0039 12.7757 14.2582 12.9413 14.4822 13.142C14.7062 13.338 14.8859 13.5807 15.0212 13.87C15.1612 14.1547 15.2312 14.5047 15.2312 14.92C15.2312 15.3633 15.1542 15.7787 15.0002 16.166C14.8509 16.5533 14.6315 16.8917 14.3422 17.181C14.0529 17.4703 13.6959 17.699 13.2712 17.867C12.8512 18.0303 12.3729 18.112 11.8362 18.112C11.5142 18.112 11.2015 18.0793 10.8982 18.014C10.5949 17.9533 10.3079 17.867 10.0372 17.755C9.76652 17.6383 9.51219 17.5007 9.27419 17.342C9.04085 17.1787 8.83085 16.9967 8.64419 16.796L9.07119 16.082C9.11319 16.026 9.16219 15.9793 9.21819 15.942C9.27885 15.9047 9.34652 15.886 9.42119 15.886C9.51919 15.886 9.63119 15.9373 9.75719 16.04C9.88785 16.1427 10.0465 16.257 10.2332 16.383C10.4245 16.5043 10.6509 16.6163 10.9122 16.719C11.1782 16.8217 11.5002 16.873 11.8782 16.873C12.1862 16.873 12.4615 16.8333 12.7042 16.754C12.9469 16.67 13.1499 16.5533 13.3132 16.404C13.4812 16.25 13.6095 16.0657 13.6982 15.851C13.7869 15.6363 13.8312 15.3983 13.8312 15.137C13.8312 14.843 13.7635 14.6027 13.6282 14.416C13.4929 14.2293 13.3132 14.073 13.0892 13.947C12.8652 13.821 12.6109 13.7137 12.3262 13.625C12.0415 13.5363 11.7499 13.4453 11.4512 13.352C11.1525 13.254 10.8609 13.142 10.5762 13.016C10.2915 12.89 10.0372 12.7267 9.81319 12.526C9.58919 12.3207 9.40952 12.0663 9.27419 11.763C9.13885 11.455 9.07119 11.077 9.07119 10.629C9.07119 10.2697 9.14119 9.922 9.28119 9.586C9.42119 9.25 9.62419 8.95367 9.89019 8.697C10.1609 8.43567 10.4922 8.228 10.8842 8.074C11.2762 7.91533 11.7242 7.836 12.2282 7.836C12.7929 7.836 13.3109 7.927 13.7822 8.109C14.2582 8.28633 14.6712 8.543 15.0212 8.879L14.6572 9.586ZM20.6177 14.843C20.0624 14.8617 19.5911 14.906 19.2037 14.976C18.8164 15.0413 18.5014 15.13 18.2587 15.242C18.0161 15.354 17.8411 15.487 17.7337 15.641C17.6264 15.7903 17.5727 15.9583 17.5727 16.145C17.5727 16.3223 17.6007 16.4763 17.6567 16.607C17.7174 16.733 17.7967 16.838 17.8947 16.922C17.9974 17.0013 18.1164 17.0597 18.2517 17.097C18.3871 17.1343 18.5341 17.153 18.6927 17.153C18.9027 17.153 19.0941 17.132 19.2667 17.09C19.4441 17.048 19.6097 16.9897 19.7637 16.915C19.9177 16.8357 20.0647 16.74 20.2047 16.628C20.3447 16.516 20.4824 16.3877 20.6177 16.243V14.843ZM16.6137 11.882C17.0104 11.504 17.4397 11.2217 17.9017 11.035C18.3684 10.8483 18.8794 10.755 19.4347 10.755C19.8407 10.755 20.2001 10.8227 20.5127 10.958C20.8254 11.0887 21.0891 11.273 21.3037 11.511C21.5184 11.749 21.6794 12.0337 21.7867 12.365C21.8987 12.6963 21.9547 13.0627 21.9547 13.464V18H21.3457C21.2104 18 21.1077 17.979 21.0377 17.937C20.9677 17.8903 20.9117 17.8063 20.8697 17.685L20.7227 17.062C20.5407 17.23 20.3611 17.3793 20.1837 17.51C20.0064 17.636 19.8197 17.7457 19.6237 17.839C19.4324 17.9277 19.2271 17.9953 19.0077 18.042C18.7884 18.0887 18.5457 18.112 18.2797 18.112C17.9997 18.112 17.7361 18.0747 17.4887 18C17.2461 17.9207 17.0337 17.8017 16.8517 17.643C16.6697 17.4843 16.5251 17.286 16.4177 17.048C16.3151 16.81 16.2637 16.5323 16.2637 16.215C16.2637 15.935 16.3384 15.6667 16.4877 15.41C16.6417 15.1487 16.8891 14.9153 17.2297 14.71C17.5751 14.5047 18.0231 14.3367 18.5737 14.206C19.1291 14.0753 19.8104 14.0007 20.6177 13.982V13.464C20.6177 12.9273 20.5034 12.526 20.2747 12.26C20.0461 11.994 19.7101 11.861 19.2667 11.861C18.9681 11.861 18.7161 11.8983 18.5107 11.973C18.3101 12.0477 18.1351 12.1317 17.9857 12.225C17.8411 12.3137 17.7127 12.3953 17.6007 12.47C17.4934 12.5447 17.3814 12.582 17.2647 12.582C17.1714 12.582 17.0897 12.5563 17.0197 12.505C16.9544 12.4537 16.9007 12.393 16.8587 12.323L16.6137 11.882ZM25.282 7.668V18H23.91V7.668H25.282ZM32.0427 13.653C32.0427 13.3823 32.003 13.1327 31.9237 12.904C31.849 12.6753 31.737 12.477 31.5877 12.309C31.4383 12.141 31.2563 12.0103 31.0417 11.917C30.827 11.8237 30.5797 11.777 30.2997 11.777C29.7257 11.777 29.273 11.9427 28.9417 12.274C28.615 12.6053 28.4073 13.065 28.3187 13.653H32.0427ZM33.1697 16.985C33.0017 17.181 32.808 17.3513 32.5887 17.496C32.3693 17.636 32.136 17.7503 31.8887 17.839C31.6413 17.9277 31.3847 17.993 31.1187 18.035C30.8573 18.077 30.5983 18.098 30.3417 18.098C29.8517 18.098 29.3967 18.0163 28.9767 17.853C28.5613 17.685 28.1997 17.4423 27.8917 17.125C27.5883 16.803 27.3503 16.4063 27.1777 15.935C27.0097 15.459 26.9257 14.913 26.9257 14.297C26.9257 13.8023 27.0027 13.3427 27.1567 12.918C27.3107 12.4887 27.53 12.1153 27.8147 11.798C28.104 11.4807 28.4563 11.231 28.8717 11.049C29.287 10.867 29.7537 10.776 30.2717 10.776C30.7057 10.776 31.1047 10.8483 31.4687 10.993C31.8373 11.133 32.1547 11.3383 32.4207 11.609C32.6867 11.8797 32.8943 12.2133 33.0437 12.61C33.1977 13.0067 33.2747 13.4593 33.2747 13.968C33.2747 14.178 33.2513 14.3203 33.2047 14.395C33.158 14.465 33.0717 14.5 32.9457 14.5H28.2837C28.2977 14.9247 28.3583 15.2957 28.4657 15.613C28.573 15.9257 28.72 16.187 28.9067 16.397C29.098 16.607 29.3243 16.7633 29.5857 16.866C29.847 16.9687 30.1387 17.02 30.4607 17.02C30.764 17.02 31.0253 16.985 31.2447 16.915C31.4687 16.845 31.66 16.7703 31.8187 16.691C31.982 16.607 32.1173 16.53 32.2247 16.46C32.3367 16.39 32.4347 16.355 32.5187 16.355C32.6307 16.355 32.717 16.397 32.7777 16.481L33.1697 16.985Z" fill="white"/>
<rect x="0.5" y="0.5" width="41" height="25" rx="7.5" stroke="#F77F39"/>
</svg>
