<svg width="24" height="24" viewBox="0 0 24 24" fill="none" xmlns="http://www.w3.org/2000/svg">
<path d="M12 7C15.79 7 19.17 9.13 20.82 12.5C19.17 15.87 15.8 18 12 18C8.2 18 4.83 15.87 3.18 12.5C4.83 9.13 8.21 7 12 7ZM12 5C7 5 2.73 8.11 1 12.5C2.73 16.89 7 20 12 20C17 20 21.27 16.89 23 12.5C21.27 8.11 17 5 12 5ZM12 10C13.38 10 14.5 11.12 14.5 12.5C14.5 13.88 13.38 15 12 15C10.62 15 9.5 13.88 9.5 12.5C9.5 11.12 10.62 10 12 10ZM12 8C9.52 8 7.5 10.02 7.5 12.5C7.5 14.98 9.52 17 12 17C14.48 17 16.5 14.98 16.5 12.5C16.5 10.02 14.48 8 12 8Z" fill="#969AA6"/>
<rect x="4.32613" y="2.38985" width="2.5" height="24" rx="1.25" transform="rotate(-30 4.32613 2.38985)" fill="#969AA6"/>
</svg>
